<mxfile host="app.diagrams.net" modified="2024-02-24T20:24:21.035Z" agent="Mozilla/5.0 (Macintosh; Intel Mac OS X 10_15_7) AppleWebKit/537.36 (KHTML, like Gecko) Chrome/120.0.0.0 YaBrowser/24.1.0.0 Safari/537.36" etag="TCBGXUR4hQaH74wSYDGH" version="23.1.5" type="github">
  <diagram id="C5RBs43oDa-KdzZeNtuy" name="Page-1">
    <mxGraphModel dx="1026" dy="696" grid="1" gridSize="10" guides="1" tooltips="1" connect="1" arrows="1" fold="1" page="1" pageScale="1" pageWidth="827" pageHeight="1169" math="0" shadow="0">
      <root>
        <mxCell id="WIyWlLk6GJQsqaUBKTNV-0" />
        <mxCell id="WIyWlLk6GJQsqaUBKTNV-1" parent="WIyWlLk6GJQsqaUBKTNV-0" />
        <mxCell id="0IrBxu6wTO3JT6gGlN2D-9" style="edgeStyle=orthogonalEdgeStyle;rounded=0;orthogonalLoop=1;jettySize=auto;html=1;exitX=0.5;exitY=1;exitDx=0;exitDy=0;endArrow=none;endFill=0;" edge="1" parent="WIyWlLk6GJQsqaUBKTNV-1" source="0IrBxu6wTO3JT6gGlN2D-1">
          <mxGeometry relative="1" as="geometry">
            <mxPoint x="236" y="430" as="targetPoint" />
          </mxGeometry>
        </mxCell>
        <mxCell id="0IrBxu6wTO3JT6gGlN2D-1" value="Карточка товара" style="rounded=1;whiteSpace=wrap;html=1;" vertex="1" parent="WIyWlLk6GJQsqaUBKTNV-1">
          <mxGeometry x="176" y="350" width="120" height="60" as="geometry" />
        </mxCell>
        <mxCell id="0IrBxu6wTO3JT6gGlN2D-8" style="edgeStyle=orthogonalEdgeStyle;rounded=0;orthogonalLoop=1;jettySize=auto;html=1;exitX=0.5;exitY=0;exitDx=0;exitDy=0;entryX=0.5;entryY=0;entryDx=0;entryDy=0;startArrow=classic;startFill=1;" edge="1" parent="WIyWlLk6GJQsqaUBKTNV-1" source="0IrBxu6wTO3JT6gGlN2D-2" target="0IrBxu6wTO3JT6gGlN2D-3">
          <mxGeometry relative="1" as="geometry" />
        </mxCell>
        <mxCell id="0IrBxu6wTO3JT6gGlN2D-2" value="Добавить товар в корзину" style="rounded=0;whiteSpace=wrap;html=1;" vertex="1" parent="WIyWlLk6GJQsqaUBKTNV-1">
          <mxGeometry x="96" y="448" width="120" height="60" as="geometry" />
        </mxCell>
        <mxCell id="0IrBxu6wTO3JT6gGlN2D-6" style="edgeStyle=orthogonalEdgeStyle;rounded=0;orthogonalLoop=1;jettySize=auto;html=1;exitX=0.5;exitY=1;exitDx=0;exitDy=0;entryX=0.5;entryY=1;entryDx=0;entryDy=0;endArrow=none;endFill=0;" edge="1" parent="WIyWlLk6GJQsqaUBKTNV-1" source="0IrBxu6wTO3JT6gGlN2D-3" target="0IrBxu6wTO3JT6gGlN2D-2">
          <mxGeometry relative="1" as="geometry">
            <mxPoint x="309" y="568" as="targetPoint" />
            <Array as="points">
              <mxPoint x="309" y="528" />
              <mxPoint x="156" y="528" />
            </Array>
          </mxGeometry>
        </mxCell>
        <mxCell id="0IrBxu6wTO3JT6gGlN2D-3" value="Удалить товар из корзины" style="rounded=0;whiteSpace=wrap;html=1;" vertex="1" parent="WIyWlLk6GJQsqaUBKTNV-1">
          <mxGeometry x="249" y="448" width="120" height="60" as="geometry" />
        </mxCell>
        <mxCell id="0IrBxu6wTO3JT6gGlN2D-34" style="edgeStyle=orthogonalEdgeStyle;rounded=0;orthogonalLoop=1;jettySize=auto;html=1;exitX=0.5;exitY=1;exitDx=0;exitDy=0;endArrow=none;endFill=0;" edge="1" parent="WIyWlLk6GJQsqaUBKTNV-1" source="0IrBxu6wTO3JT6gGlN2D-15">
          <mxGeometry relative="1" as="geometry">
            <mxPoint x="560" y="130" as="targetPoint" />
          </mxGeometry>
        </mxCell>
        <mxCell id="0IrBxu6wTO3JT6gGlN2D-45" value="Закрыть окно" style="edgeStyle=orthogonalEdgeStyle;rounded=0;orthogonalLoop=1;jettySize=auto;html=1;entryX=1;entryY=0.5;entryDx=0;entryDy=0;startArrow=none;startFill=0;endArrow=none;endFill=0;" edge="1" parent="WIyWlLk6GJQsqaUBKTNV-1">
          <mxGeometry x="0.908" y="-40" relative="1" as="geometry">
            <mxPoint x="560" y="25" as="sourcePoint" />
            <mxPoint x="710" y="270" as="targetPoint" />
            <Array as="points">
              <mxPoint x="560" y="20" />
              <mxPoint x="730" y="20" />
              <mxPoint x="730" y="270" />
            </Array>
            <mxPoint x="40" y="40" as="offset" />
          </mxGeometry>
        </mxCell>
        <mxCell id="0IrBxu6wTO3JT6gGlN2D-15" value="Корзина" style="rounded=1;whiteSpace=wrap;html=1;" vertex="1" parent="WIyWlLk6GJQsqaUBKTNV-1">
          <mxGeometry x="500" y="45" width="120" height="60" as="geometry" />
        </mxCell>
        <mxCell id="0IrBxu6wTO3JT6gGlN2D-18" value="Кликнуть значек корзины" style="edgeStyle=orthogonalEdgeStyle;rounded=0;orthogonalLoop=1;jettySize=auto;html=1;exitX=1;exitY=0.5;exitDx=0;exitDy=0;entryX=0;entryY=0.5;entryDx=0;entryDy=0;" edge="1" parent="WIyWlLk6GJQsqaUBKTNV-1" source="0IrBxu6wTO3JT6gGlN2D-16" target="0IrBxu6wTO3JT6gGlN2D-15">
          <mxGeometry x="0.3177" y="15" relative="1" as="geometry">
            <Array as="points">
              <mxPoint x="370" y="170" />
              <mxPoint x="370" y="75" />
            </Array>
            <mxPoint as="offset" />
          </mxGeometry>
        </mxCell>
        <mxCell id="0IrBxu6wTO3JT6gGlN2D-24" style="edgeStyle=orthogonalEdgeStyle;rounded=0;orthogonalLoop=1;jettySize=auto;html=1;exitX=0.5;exitY=1;exitDx=0;exitDy=0;" edge="1" parent="WIyWlLk6GJQsqaUBKTNV-1" source="0IrBxu6wTO3JT6gGlN2D-16" target="0IrBxu6wTO3JT6gGlN2D-23">
          <mxGeometry relative="1" as="geometry" />
        </mxCell>
        <mxCell id="0IrBxu6wTO3JT6gGlN2D-16" value="Главная страница" style="rounded=1;whiteSpace=wrap;html=1;" vertex="1" parent="WIyWlLk6GJQsqaUBKTNV-1">
          <mxGeometry x="176" y="140" width="120" height="60" as="geometry" />
        </mxCell>
        <mxCell id="0IrBxu6wTO3JT6gGlN2D-33" style="edgeStyle=orthogonalEdgeStyle;rounded=0;orthogonalLoop=1;jettySize=auto;html=1;exitX=0.5;exitY=0;exitDx=0;exitDy=0;entryX=0.5;entryY=0;entryDx=0;entryDy=0;endArrow=classic;endFill=1;startArrow=classic;startFill=1;" edge="1" parent="WIyWlLk6GJQsqaUBKTNV-1" source="0IrBxu6wTO3JT6gGlN2D-21" target="0IrBxu6wTO3JT6gGlN2D-31">
          <mxGeometry relative="1" as="geometry" />
        </mxCell>
        <mxCell id="0IrBxu6wTO3JT6gGlN2D-21" value="Удалить товар из корзины" style="rounded=0;whiteSpace=wrap;html=1;" vertex="1" parent="WIyWlLk6GJQsqaUBKTNV-1">
          <mxGeometry x="414" y="150" width="120" height="60" as="geometry" />
        </mxCell>
        <mxCell id="0IrBxu6wTO3JT6gGlN2D-28" style="edgeStyle=orthogonalEdgeStyle;rounded=0;orthogonalLoop=1;jettySize=auto;html=1;startArrow=classic;startFill=1;endArrow=none;endFill=0;exitX=0;exitY=0.5;exitDx=0;exitDy=0;" edge="1" parent="WIyWlLk6GJQsqaUBKTNV-1" source="0IrBxu6wTO3JT6gGlN2D-16">
          <mxGeometry relative="1" as="geometry">
            <mxPoint x="236" y="530" as="targetPoint" />
            <mxPoint x="236" y="255" as="sourcePoint" />
            <Array as="points">
              <mxPoint x="70" y="170" />
              <mxPoint x="70" y="560" />
              <mxPoint x="236" y="560" />
            </Array>
          </mxGeometry>
        </mxCell>
        <mxCell id="0IrBxu6wTO3JT6gGlN2D-29" style="edgeStyle=orthogonalEdgeStyle;rounded=0;orthogonalLoop=1;jettySize=auto;html=1;entryX=1;entryY=0.5;entryDx=0;entryDy=0;" edge="1" parent="WIyWlLk6GJQsqaUBKTNV-1" source="0IrBxu6wTO3JT6gGlN2D-23" target="0IrBxu6wTO3JT6gGlN2D-1">
          <mxGeometry relative="1" as="geometry">
            <Array as="points">
              <mxPoint x="340" y="290" />
              <mxPoint x="340" y="380" />
            </Array>
          </mxGeometry>
        </mxCell>
        <mxCell id="0IrBxu6wTO3JT6gGlN2D-52" value="Нет" style="edgeLabel;html=1;align=center;verticalAlign=middle;resizable=0;points=[];" vertex="1" connectable="0" parent="0IrBxu6wTO3JT6gGlN2D-29">
          <mxGeometry x="-0.1203" y="-1" relative="1" as="geometry">
            <mxPoint x="-19" y="1" as="offset" />
          </mxGeometry>
        </mxCell>
        <mxCell id="0IrBxu6wTO3JT6gGlN2D-30" style="edgeStyle=orthogonalEdgeStyle;rounded=0;orthogonalLoop=1;jettySize=auto;html=1;entryX=0;entryY=0.5;entryDx=0;entryDy=0;" edge="1" parent="WIyWlLk6GJQsqaUBKTNV-1" source="0IrBxu6wTO3JT6gGlN2D-23" target="0IrBxu6wTO3JT6gGlN2D-1">
          <mxGeometry relative="1" as="geometry">
            <Array as="points">
              <mxPoint x="130" y="290" />
              <mxPoint x="130" y="380" />
            </Array>
          </mxGeometry>
        </mxCell>
        <mxCell id="0IrBxu6wTO3JT6gGlN2D-51" value="Есть" style="edgeLabel;html=1;align=center;verticalAlign=middle;resizable=0;points=[];" vertex="1" connectable="0" parent="0IrBxu6wTO3JT6gGlN2D-30">
          <mxGeometry x="-0.0926" y="2" relative="1" as="geometry">
            <mxPoint x="18" y="1" as="offset" />
          </mxGeometry>
        </mxCell>
        <mxCell id="0IrBxu6wTO3JT6gGlN2D-23" value="Проверить корзину" style="rhombus;whiteSpace=wrap;html=1;" vertex="1" parent="WIyWlLk6GJQsqaUBKTNV-1">
          <mxGeometry x="156" y="240" width="160" height="100" as="geometry" />
        </mxCell>
        <mxCell id="0IrBxu6wTO3JT6gGlN2D-37" style="edgeStyle=orthogonalEdgeStyle;rounded=0;orthogonalLoop=1;jettySize=auto;html=1;entryX=0.5;entryY=0;entryDx=0;entryDy=0;" edge="1" parent="WIyWlLk6GJQsqaUBKTNV-1" source="0IrBxu6wTO3JT6gGlN2D-31" target="0IrBxu6wTO3JT6gGlN2D-32">
          <mxGeometry relative="1" as="geometry" />
        </mxCell>
        <mxCell id="0IrBxu6wTO3JT6gGlN2D-31" value="Оформить заказ" style="rounded=0;whiteSpace=wrap;html=1;" vertex="1" parent="WIyWlLk6GJQsqaUBKTNV-1">
          <mxGeometry x="590" y="150" width="120" height="60" as="geometry" />
        </mxCell>
        <mxCell id="0IrBxu6wTO3JT6gGlN2D-38" style="edgeStyle=orthogonalEdgeStyle;rounded=0;orthogonalLoop=1;jettySize=auto;html=1;exitX=0.5;exitY=1;exitDx=0;exitDy=0;entryX=0.5;entryY=0;entryDx=0;entryDy=0;" edge="1" parent="WIyWlLk6GJQsqaUBKTNV-1" target="0IrBxu6wTO3JT6gGlN2D-35">
          <mxGeometry relative="1" as="geometry">
            <mxPoint x="650" y="310" as="sourcePoint" />
          </mxGeometry>
        </mxCell>
        <mxCell id="0IrBxu6wTO3JT6gGlN2D-32" value="Способ оплаты&lt;br&gt;&lt;div style=&quot;background-color: rgb(255, 255, 255); font-family: &amp;quot;JetBrains Mono&amp;quot;, Menlo, Monaco, &amp;quot;Courier New&amp;quot;, monospace, Menlo, Monaco, &amp;quot;Courier New&amp;quot;, monospace; line-height: 18px;&quot;&gt;Адрес доставки&lt;/div&gt;" style="rounded=1;whiteSpace=wrap;html=1;" vertex="1" parent="WIyWlLk6GJQsqaUBKTNV-1">
          <mxGeometry x="590" y="240" width="120" height="70" as="geometry" />
        </mxCell>
        <mxCell id="0IrBxu6wTO3JT6gGlN2D-36" style="edgeStyle=orthogonalEdgeStyle;rounded=0;orthogonalLoop=1;jettySize=auto;html=1;entryX=0;entryY=0.5;entryDx=0;entryDy=0;" edge="1" parent="WIyWlLk6GJQsqaUBKTNV-1" source="0IrBxu6wTO3JT6gGlN2D-35" target="0IrBxu6wTO3JT6gGlN2D-32">
          <mxGeometry relative="1" as="geometry">
            <Array as="points">
              <mxPoint x="560" y="370" />
              <mxPoint x="560" y="275" />
            </Array>
          </mxGeometry>
        </mxCell>
        <mxCell id="0IrBxu6wTO3JT6gGlN2D-40" value="" style="edgeStyle=orthogonalEdgeStyle;rounded=0;orthogonalLoop=1;jettySize=auto;html=1;" edge="1" parent="WIyWlLk6GJQsqaUBKTNV-1" source="0IrBxu6wTO3JT6gGlN2D-35" target="0IrBxu6wTO3JT6gGlN2D-39">
          <mxGeometry relative="1" as="geometry" />
        </mxCell>
        <mxCell id="0IrBxu6wTO3JT6gGlN2D-35" value="Валидация" style="rhombus;whiteSpace=wrap;html=1;" vertex="1" parent="WIyWlLk6GJQsqaUBKTNV-1">
          <mxGeometry x="610" y="330" width="80" height="80" as="geometry" />
        </mxCell>
        <mxCell id="0IrBxu6wTO3JT6gGlN2D-42" style="edgeStyle=orthogonalEdgeStyle;rounded=0;orthogonalLoop=1;jettySize=auto;html=1;exitX=0.5;exitY=1;exitDx=0;exitDy=0;entryX=0.5;entryY=0;entryDx=0;entryDy=0;" edge="1" parent="WIyWlLk6GJQsqaUBKTNV-1" source="0IrBxu6wTO3JT6gGlN2D-39" target="0IrBxu6wTO3JT6gGlN2D-41">
          <mxGeometry relative="1" as="geometry" />
        </mxCell>
        <mxCell id="0IrBxu6wTO3JT6gGlN2D-46" value="Закрыть окно" style="edgeStyle=orthogonalEdgeStyle;rounded=0;orthogonalLoop=1;jettySize=auto;html=1;exitX=1;exitY=0.5;exitDx=0;exitDy=0;endArrow=none;endFill=0;" edge="1" parent="WIyWlLk6GJQsqaUBKTNV-1" source="0IrBxu6wTO3JT6gGlN2D-39">
          <mxGeometry x="-0.7955" y="-39" relative="1" as="geometry">
            <mxPoint x="730" y="270" as="targetPoint" />
            <mxPoint x="1" y="1" as="offset" />
          </mxGeometry>
        </mxCell>
        <mxCell id="0IrBxu6wTO3JT6gGlN2D-39" value="Телефон&lt;br&gt;Эл.почта" style="rounded=1;whiteSpace=wrap;html=1;" vertex="1" parent="WIyWlLk6GJQsqaUBKTNV-1">
          <mxGeometry x="590" y="430" width="120" height="60" as="geometry" />
        </mxCell>
        <mxCell id="0IrBxu6wTO3JT6gGlN2D-43" style="edgeStyle=orthogonalEdgeStyle;rounded=0;orthogonalLoop=1;jettySize=auto;html=1;entryX=0;entryY=0.5;entryDx=0;entryDy=0;" edge="1" parent="WIyWlLk6GJQsqaUBKTNV-1" source="0IrBxu6wTO3JT6gGlN2D-41" target="0IrBxu6wTO3JT6gGlN2D-39">
          <mxGeometry relative="1" as="geometry">
            <Array as="points">
              <mxPoint x="560" y="555" />
              <mxPoint x="560" y="460" />
            </Array>
          </mxGeometry>
        </mxCell>
        <mxCell id="0IrBxu6wTO3JT6gGlN2D-48" style="edgeStyle=orthogonalEdgeStyle;rounded=0;orthogonalLoop=1;jettySize=auto;html=1;exitX=0.5;exitY=1;exitDx=0;exitDy=0;entryX=0.5;entryY=0;entryDx=0;entryDy=0;" edge="1" parent="WIyWlLk6GJQsqaUBKTNV-1" source="0IrBxu6wTO3JT6gGlN2D-41" target="0IrBxu6wTO3JT6gGlN2D-47">
          <mxGeometry relative="1" as="geometry" />
        </mxCell>
        <mxCell id="0IrBxu6wTO3JT6gGlN2D-41" value="Валидация" style="rhombus;whiteSpace=wrap;html=1;" vertex="1" parent="WIyWlLk6GJQsqaUBKTNV-1">
          <mxGeometry x="610" y="515" width="80" height="80" as="geometry" />
        </mxCell>
        <mxCell id="0IrBxu6wTO3JT6gGlN2D-50" value="Закрыть окно" style="edgeStyle=orthogonalEdgeStyle;rounded=0;orthogonalLoop=1;jettySize=auto;html=1;endArrow=classic;endFill=1;exitX=0;exitY=0.5;exitDx=0;exitDy=0;entryX=0;entryY=0.5;entryDx=0;entryDy=0;startArrow=none;startFill=0;" edge="1" parent="WIyWlLk6GJQsqaUBKTNV-1" source="0IrBxu6wTO3JT6gGlN2D-53" target="0IrBxu6wTO3JT6gGlN2D-55">
          <mxGeometry x="-0.878" y="-10" relative="1" as="geometry">
            <mxPoint x="155" y="70" as="targetPoint" />
            <mxPoint x="569" y="730" as="sourcePoint" />
            <Array as="points">
              <mxPoint x="49" y="730" />
              <mxPoint x="49" y="70" />
            </Array>
            <mxPoint as="offset" />
          </mxGeometry>
        </mxCell>
        <mxCell id="0IrBxu6wTO3JT6gGlN2D-54" style="edgeStyle=orthogonalEdgeStyle;rounded=0;orthogonalLoop=1;jettySize=auto;html=1;entryX=0.5;entryY=0;entryDx=0;entryDy=0;" edge="1" parent="WIyWlLk6GJQsqaUBKTNV-1" source="0IrBxu6wTO3JT6gGlN2D-47" target="0IrBxu6wTO3JT6gGlN2D-53">
          <mxGeometry relative="1" as="geometry" />
        </mxCell>
        <mxCell id="0IrBxu6wTO3JT6gGlN2D-47" value="Направление данных на сервер" style="rounded=1;whiteSpace=wrap;html=1;" vertex="1" parent="WIyWlLk6GJQsqaUBKTNV-1">
          <mxGeometry x="590" y="620" width="120" height="50" as="geometry" />
        </mxCell>
        <mxCell id="0IrBxu6wTO3JT6gGlN2D-53" value="Вывод окна подтверждения оплаты" style="rounded=1;whiteSpace=wrap;html=1;" vertex="1" parent="WIyWlLk6GJQsqaUBKTNV-1">
          <mxGeometry x="590" y="700" width="120" height="60" as="geometry" />
        </mxCell>
        <mxCell id="0IrBxu6wTO3JT6gGlN2D-56" value="" style="edgeStyle=orthogonalEdgeStyle;rounded=0;orthogonalLoop=1;jettySize=auto;html=1;exitX=0.5;exitY=0;exitDx=0;exitDy=0;entryX=0.5;entryY=0;entryDx=0;entryDy=0;" edge="1" parent="WIyWlLk6GJQsqaUBKTNV-1" source="0IrBxu6wTO3JT6gGlN2D-15" target="0IrBxu6wTO3JT6gGlN2D-55">
          <mxGeometry x="0.018" y="-10" relative="1" as="geometry">
            <mxPoint x="560" y="45" as="sourcePoint" />
            <mxPoint x="236" y="120" as="targetPoint" />
            <mxPoint as="offset" />
          </mxGeometry>
        </mxCell>
        <mxCell id="0IrBxu6wTO3JT6gGlN2D-57" style="edgeStyle=orthogonalEdgeStyle;rounded=0;orthogonalLoop=1;jettySize=auto;html=1;entryX=0.5;entryY=0;entryDx=0;entryDy=0;" edge="1" parent="WIyWlLk6GJQsqaUBKTNV-1" source="0IrBxu6wTO3JT6gGlN2D-55" target="0IrBxu6wTO3JT6gGlN2D-16">
          <mxGeometry relative="1" as="geometry" />
        </mxCell>
        <mxCell id="0IrBxu6wTO3JT6gGlN2D-55" value="Получение данных&lt;br&gt;с сервера" style="rounded=1;whiteSpace=wrap;html=1;" vertex="1" parent="WIyWlLk6GJQsqaUBKTNV-1">
          <mxGeometry x="176" y="40" width="120" height="60" as="geometry" />
        </mxCell>
      </root>
    </mxGraphModel>
  </diagram>
</mxfile>
